<?xml version="1.0" encoding="UTF-8"?>
<svg id="Layer_1" data-name="Layer 1" xmlns="http://www.w3.org/2000/svg" viewBox="0 0 796 206">
  <defs>
    <style>
      .cls-1 {
        fill: #1073fe;
      }

      .cls-1, .cls-2, .cls-3 {
        stroke-width: 0px;
      }

      .cls-2 {
        fill: #0c253c;
      }

      .cls-3 {
        fill: #fff;
      }
    </style>
  </defs>
  <path class="cls-2" d="M324.12,199.68l-31.37-48.03-29.71,48.03h-47.76l53.86-78.85-51.09-73.85h47.2l28.88,44.7,26.93-44.7h47.76l-51.09,74.97,53.59,77.74h-47.2Z"/>
  <path class="cls-2" d="M393.25,46.97h39.7v152.71h-39.7V46.97Z"/>
  <path class="cls-2" d="M620.37,123.33c0,46.09-34.98,79.69-79.69,79.69s-79.41-33.87-79.41-79.69,35.54-79.69,79.41-79.69,79.69,33.6,79.69,79.69ZM501.25,123.33c0,25.27,17.21,41.92,39.43,41.92s39.43-16.66,39.43-41.92-17.21-41.92-39.43-41.92-39.43,16.94-39.43,41.92Z"/>
  <rect class="cls-1" x="432.95" y="7.27" width="39.7" height="39.7"/>
  <path class="cls-2" d="M737.98,43.7l.02-.06h-37l.02.05c-33.01,1.03-52.89,23.59-52.89,60.2v95.79h39.7v-87.18c0-19.34,6.81-30.58,26.37-31.28l11.44.03c18.78,1.05,25.21,12.26,25.21,31.25v87.18h39.7v-95.79c0-36.5-19.75-59.04-52.58-60.19Z"/>
  <g>
    <path class="cls-3" d="M764.42,185.55h4.51v-9.6h4.35v9.6h4.83v-10.46h4.35v15.04h-22.4v-15.04h4.35v10.46Z"/>
    <path class="cls-3" d="M774.4,164.08v2.53h8.06v4.58h-22.4v-9.63c0-4.8,2.85-7.65,7.29-7.65,3.65,0,5.89,1.89,6.69,5.02l8.42-6.27v5.63l-8.06,5.79ZM770.4,166.61v-4.54c0-2.4-1.15-3.52-2.98-3.52s-3.01,1.15-3.01,3.52v4.54h5.98Z"/>
    <path class="cls-3" d="M767.59,131.99c4.7,0,7.65,3.17,7.65,7.97v4.83h7.23v4.58h-22.4v-9.41c0-4.8,2.82-7.97,7.52-7.97ZM767.65,136.63c-1.98,0-3.23,1.15-3.23,3.52v4.64h6.46v-4.64c0-2.37-1.28-3.52-3.23-3.52Z"/>
  </g>
  <path class="cls-1" d="M158.87,85.99L129.32,6h-51.5L7.81,193.02l-2.61,6.98h44.92c14.67-16.42,45.71-47.26,86.02-65.84l24.32,65.84h40.51l-28.81-78c11.51-2.45,23.5-3.61,35.84-3.02l1.81-37.96c-17.83-.85-34.86,1.08-50.95,4.97ZM72.8,127.83l30.71-82.04,19.4,52.52c-18.66,8.28-35.49,18.72-50.11,29.52Z"/>
</svg>