<?xml version="1.0" encoding="UTF-8"?>
<svg id="Layer_1" data-name="Layer 1" xmlns="http://www.w3.org/2000/svg" xmlns:xlink="http://www.w3.org/1999/xlink" viewBox="0 0 416.27 66.91">
  <defs>
    <style>
      .cls-1 {
        fill: url(#linear-gradient);
      }

      .cls-1, .cls-2 {
        stroke-width: 0px;
      }

      .cls-2 {
        fill: #262626;
      }
    </style>
    <linearGradient id="linear-gradient" x1="10.51" y1="16.52" x2="51.25" y2="57.25" gradientUnits="userSpaceOnUse">
      <stop offset="0" stop-color="#4563ff"/>
      <stop offset="1" stop-color="#3345a4"/>
    </linearGradient>
  </defs>
  <path class="cls-1" d="M52.53,55.53c-.64,1.56-2.13,2.47-3.68,2.47-.6,0-1.21-.14-1.79-.43l-2.55-1.29c-4.27-2.15-6.94-6.43-7.02-11.19,0,0,0,0-.01,0v-7.14c0-.91.4-1.78,1.13-2.33,3.07-2.34,5.06-6.04,5.06-10.19,0-7.54-6.55-13.58-14.26-12.72-5.9.66-10.64,5.43-11.26,11.34-.49,4.71,1.58,8.97,4.99,11.57.72.55,1.12,1.42,1.12,2.32v7.14s0,0-.01,0c-.08,4.77-2.75,9.04-7.02,11.2l-2.55,1.29c-.57.29-1.18.43-1.79.43-1.55,0-3.04-.91-3.68-2.47-.8-1.94.14-4.17,2.02-5.11l2.42-1.22c1.63-.82,2.66-2.49,2.66-4.32v-3.78c0-.55-.2-1.09-.57-1.49-3.69-3.94-5.86-9.31-5.58-15.18.5-10.4,8.83-18.93,19.21-19.67,12.11-.86,22.25,8.75,22.25,20.69,0,5.48-2.14,10.46-5.62,14.17-.37.39-.56.92-.56,1.46v3.8c0,1.83,1.03,3.5,2.66,4.32l2.42,1.22c1.87.94,2.81,3.17,2.02,5.11ZM30.87,38.16c-.71,0-1.41-.06-2.09-.17-.98-.16-1.89.57-1.89,1.56v18.52c0,2.17,1.68,4.07,3.85,4.13s4.09-1.74,4.09-3.97v-18.68c0-1-.9-1.72-1.89-1.56-.68.11-1.37.17-2.09.17Z"/>
  <g>
    <path class="cls-2" d="M123.21,35.45c0,14.17-10.93,24.9-25.1,24.9s-25.03-10.73-25.03-24.9,10.87-24.89,25.03-24.89,25.1,10.73,25.1,24.89ZM82.98,35.45c0,9.01,6.46,15.54,15.13,15.54s15.13-6.53,15.13-15.54-6.46-15.54-15.13-15.54-15.13,6.53-15.13,15.54Z"/>
    <path class="cls-2" d="M129.33,40.61c0-11.21,8.32-19.74,19.74-19.74,9.21,0,17.4,5.57,18.84,15.2h-10.11c-1.17-4.13-4.75-6.12-8.73-6.12-5.98,0-9.83,4.4-9.77,10.66-.07,6.33,3.92,10.66,9.7,10.66,4.06,0,7.63-2.06,8.8-6.19h10.11c-1.51,9.97-9.83,15.27-18.91,15.27-11.35,0-19.67-8.53-19.67-19.74Z"/>
    <path class="cls-2" d="M203.94,57.32c-2.06,1.38-6.74,3.03-11.28,3.03-7.57,0-14.17-4.54-14.17-15.4v-13.96h-6.74v-9.28h6.74v-8.18l9.83-2.13v10.32h14.03v9.28h-14.03v13.41c0,4.47,2.13,6.81,6.05,6.81,2.2,0,4.81-.76,7.91-1.86l1.65,7.98Z"/>
    <path class="cls-2" d="M246.51,21.7l-.07,37.82h-9.83v-5.09c-2.61,3.58-6.53,5.91-11.83,5.91-9.9,0-17.26-8.12-17.26-19.74s7.5-19.74,17.19-19.74c5.36,0,9.35,2.48,11.97,6.12v-5.29h9.83ZM236.67,40.61c0-6.19-4.19-10.38-9.7-10.38s-9.56,4.2-9.56,10.38,4.13,10.38,9.56,10.38,9.7-4.13,9.7-10.38Z"/>
    <path class="cls-2" d="M265.49,20.73v10.11h20.63v9.35h-20.63v19.33h-9.83V11.38h32.32v9.35h-22.49Z"/>
    <path class="cls-2" d="M294.57,6.57h9.83v52.95h-9.83V6.57Z"/>
    <path class="cls-2" d="M350.76,40.61c0,11.42-8.67,19.74-19.74,19.74s-19.67-8.39-19.67-19.74,8.8-19.74,19.67-19.74,19.74,8.32,19.74,19.74ZM321.26,40.61c0,6.26,4.26,10.38,9.77,10.38s9.77-4.13,9.77-10.38-4.26-10.38-9.77-10.38-9.77,4.2-9.77,10.38Z"/>
    <path class="cls-2" d="M410.59,21.7l-10.38,37.82h-11.35l-3.51-12.72-2.75-15.34h-1.31l-2.75,15.34-3.51,12.72h-11.35l-10.38-37.82h9.77l3.16,11.9,3.37,15.2,3.3-15.2,3.16-11.9h11.76l3.16,11.9,3.3,15.06,3.37-15.06,3.16-11.9h9.77Z"/>
  </g>
</svg>