<?xml version="1.0" encoding="UTF-8"?>
<svg id="Layer_1" data-name="Layer 1" xmlns="http://www.w3.org/2000/svg" viewBox="0 0 127.56 127.56">
  <defs>
    <style>
      .cls-1 {
        fill: none;
      }

      .cls-1, .cls-2 {
        stroke-width: 0px;
      }

      .cls-2 {
        fill: #fff;
      }
    </style>
  </defs>
  <rect class="cls-1" width="127.56" height="127.56" rx="32.1" ry="32.1"/>
  <path class="cls-2" d="M96.06,91.52l-3.98-2.01c-2.68-1.35-4.37-4.1-4.37-7.1v-6.25c0-.89.32-1.76.92-2.4,5.72-6.1,9.23-14.29,9.23-23.29,0-19.61-16.65-35.41-36.56-34-17.07,1.21-30.75,15.23-31.57,32.32-.46,9.65,3.11,18.47,9.17,24.94.62.66.94,1.55.94,2.45v6.21c0,3-1.69,5.75-4.37,7.1l-3.98,2.01c-3.08,1.55-4.63,5.21-3.31,8.4,1.05,2.56,3.5,4.06,6.05,4.06.99,0,1.99-.23,2.93-.7l4.19-2.11c7.01-3.54,11.4-10.57,11.53-18.4,0,0,.01,0,.02,0v-11.73c0-1.49-.65-2.92-1.84-3.82-5.61-4.27-9.02-11.28-8.21-19.01,1.02-9.71,8.81-17.56,18.51-18.64,12.67-1.41,23.44,8.51,23.44,20.9,0,6.82-3.26,12.89-8.31,16.74-1.19.9-1.85,2.34-1.85,3.83v11.73s.01,0,.02,0c.13,7.83,4.52,14.86,11.53,18.4l4.19,2.11c.94.48,1.95.7,2.93.7,2.55,0,4.99-1.5,6.05-4.06,1.31-3.19-.24-6.85-3.31-8.4Z"/>
  <path class="cls-2" d="M63.78,71.37c-1.17,0-2.31-.1-3.43-.28-1.62-.27-3.1.93-3.1,2.57v30.43c0,3.57,2.75,6.69,6.33,6.8s6.73-2.85,6.73-6.52v-30.71c0-1.64-1.48-2.83-3.1-2.57-1.12.18-2.26.28-3.43.28Z"/>
</svg>