<?xml version="1.0" encoding="UTF-8"?>
<svg id="Layer_1" data-name="Layer 1" xmlns="http://www.w3.org/2000/svg" xmlns:xlink="http://www.w3.org/1999/xlink" viewBox="0 0 127.56 127.56">
  <defs>
    <style>
      .cls-1 {
        fill: url(#linear-gradient);
      }

      .cls-1, .cls-2 {
        stroke-width: 0px;
      }

      .cls-2 {
        fill: none;
      }
    </style>
    <linearGradient id="linear-gradient" x1="30.31" y1="35.79" x2="97.27" y2="102.75" gradientUnits="userSpaceOnUse">
      <stop offset="0" stop-color="#4563ff"/>
      <stop offset="1" stop-color="#3345a4"/>
    </linearGradient>
  </defs>
  <rect class="cls-2" width="127.56" height="127.56" rx="32.1" ry="32.1"/>
  <path class="cls-1" d="M99.37,99.92c-1.05,2.56-3.5,4.06-6.05,4.06-.99,0-1.99-.23-2.93-.7l-4.19-2.11c-7.01-3.54-11.4-10.56-11.53-18.4,0,0-.01,0-.02,0v-11.73c0-1.49.66-2.92,1.85-3.83,5.05-3.85,8.31-9.92,8.31-16.74,0-12.39-10.77-22.32-23.44-20.9-9.7,1.08-17.49,8.93-18.51,18.64-.81,7.73,2.6,14.75,8.21,19.01,1.18.9,1.84,2.33,1.84,3.82v11.73s-.01,0-.02,0c-.13,7.83-4.52,14.86-11.53,18.4l-4.19,2.11c-.94.48-1.95.7-2.93.7-2.55,0-4.99-1.5-6.05-4.06-1.31-3.19.24-6.85,3.31-8.4l3.98-2.01c2.68-1.35,4.37-4.1,4.37-7.1v-6.21c0-.91-.32-1.79-.94-2.45-6.06-6.47-9.64-15.3-9.17-24.94.82-17.09,14.51-31.11,31.57-32.32,19.91-1.41,36.56,14.38,36.56,34,0,9-3.51,17.19-9.23,23.29-.61.65-.92,1.52-.92,2.4v6.25c0,3,1.69,5.75,4.37,7.1l3.98,2.01c3.08,1.55,4.63,5.21,3.31,8.4ZM63.78,71.37c-1.17,0-2.31-.1-3.43-.28-1.62-.27-3.1.93-3.1,2.57v30.43c0,3.57,2.75,6.69,6.33,6.8s6.73-2.85,6.73-6.52v-30.71c0-1.64-1.48-2.83-3.1-2.57-1.12.18-2.26.28-3.43.28Z"/>
</svg>