<?xml version="1.0" encoding="UTF-8"?>
<svg id="OBJECTS" xmlns="http://www.w3.org/2000/svg" xmlns:xlink="http://www.w3.org/1999/xlink" viewBox="0 0 250.78 145.52">
  <defs>
    <style>
      .cls-1 {
        fill: #fff;
      }

      .cls-2 {
        fill: #334155;
      }

      .cls-3 {
        clip-path: url(#clippath-1);
      }

      .cls-4 {
        fill: #1e293b;
      }

      .cls-5 {
        fill: #475569;
      }

      .cls-6, .cls-7 {
        fill: #64748b;
      }

      .cls-6, .cls-8 {
        opacity: .4;
      }

      .cls-8 {
        fill: #94a3b8;
      }
    </style>
    <clipPath id="clippath-1">
      <ellipse class="cls-7" cx="125.39" cy="130.07" rx="122.67" ry="12.33"/>
    </clipPath>
  </defs>
  <g>
    <ellipse class="cls-7" cx="125.39" cy="130.07" rx="122.67" ry="12.33"/>
    <g class="cls-3">
      <path class="cls-2" d="M60.85,85.66v57.39h129.08v-57.39"/>
    </g>
  </g>
  <path class="cls-5" d="M189.93,125.05v-54.61c0-35.5-29.04-64.54-64.54-64.54h0c-35.5,0-64.54,29.04-64.54,64.54v54.61h129.08Z"/>
  <g>
    <path class="cls-4" d="M110.38,82.4c1.07-1.07,1.65-2.49,1.65-4s-.59-2.93-1.65-4l-8.22-8.22,8.22-8.22c1.07-1.07,1.65-2.49,1.65-4s-.59-2.93-1.65-4c-2.21-2.2-5.79-2.21-8,0l-8.22,8.22-8.22-8.22c-2.21-2.2-5.8-2.2-8,0h0c-1.07,1.07-1.65,2.49-1.65,4s.59,2.93,1.65,4l8.22,8.22-8.22,8.22c-1.07,1.07-1.65,2.49-1.65,4s.59,2.93,1.65,4h0c1.07,1.07,2.49,1.65,4,1.65s2.93-.59,4-1.65l8.22-8.22,8.22,8.22c1.07,1.07,2.49,1.65,4,1.65s2.93-.59,4-1.65Z"/>
    <path class="cls-4" d="M163.58,66.18l9.09-9.09c1.18-1.18,1.83-2.75,1.83-4.42s-.65-3.24-1.83-4.42c-2.44-2.44-6.41-2.44-8.85,0l-9.09,9.09-9.09-9.09c-2.44-2.44-6.41-2.44-8.85,0h0c-1.18,1.18-1.83,2.75-1.83,4.42s.65,3.25,1.83,4.42l9.09,9.09-9.09,9.09c-1.18,1.18-1.83,2.75-1.83,4.42s.65,3.24,1.83,4.42h0c1.18,1.18,2.75,1.83,4.42,1.83s3.24-.65,4.42-1.83l9.09-9.09,9.09,9.09c1.18,1.18,2.75,1.83,4.42,1.83s3.24-.65,4.42-1.83c1.18-1.18,1.83-2.75,1.83-4.42s-.65-3.24-1.83-4.42l-9.09-9.09Z"/>
    <path class="cls-4" d="M122.72,89.27c-9.98,0-18.1,8.12-18.1,18.1,0,1.95,1.58,3.53,3.53,3.53s3.53-1.58,3.53-3.53c0-6.09,4.95-11.04,11.04-11.04s11.04,4.95,11.04,11.04c0,1.95,1.58,3.53,3.53,3.53s3.53-1.58,3.53-3.53c0-9.98-8.12-18.1-18.1-18.1Z"/>
  </g>
  <path class="cls-6" d="M125.39,25.4c19.4,0,35.76,1.16,40.92-4.77-11.16-9.19-25.42-14.72-40.92-14.72h0c-15.49,0-29.76,5.54-40.92,14.72,5.16,5.92,21.52,4.77,40.92,4.77Z"/>
  <path class="cls-2" d="M60.85,78.66v57.39h129.08v-57.39c-5.15,26.55-28.47,46.19-56.05,46.19h-16.99c-27.57,0-50.9-19.63-56.05-46.19Z"/>
  <g>
    <path class="cls-1" d="M110.38,79.62c1.07-1.07,1.65-2.49,1.65-4s-.59-2.93-1.65-4l-8.22-8.22,8.22-8.22c1.07-1.07,1.65-2.49,1.65-4s-.59-2.93-1.65-4c-2.21-2.2-5.79-2.21-8,0l-8.22,8.22-8.22-8.22c-2.21-2.2-5.8-2.2-8,0h0c-1.07,1.07-1.65,2.49-1.65,4s.59,2.93,1.65,4l8.22,8.22-8.22,8.22c-1.07,1.07-1.65,2.49-1.65,4s.59,2.93,1.65,4h0c1.07,1.07,2.49,1.65,4,1.65s2.93-.59,4-1.65l8.22-8.22,8.22,8.22c1.07,1.07,2.49,1.65,4,1.65s2.93-.59,4-1.65Z"/>
    <path class="cls-1" d="M163.58,63.4l9.09-9.09c1.18-1.18,1.83-2.75,1.83-4.42s-.65-3.24-1.83-4.42c-2.44-2.44-6.41-2.44-8.85,0l-9.09,9.09-9.09-9.09c-2.44-2.44-6.41-2.44-8.85,0h0c-1.18,1.18-1.83,2.75-1.83,4.42s.65,3.25,1.83,4.42l9.09,9.09-9.09,9.09c-1.18,1.18-1.83,2.75-1.83,4.42s.65,3.24,1.83,4.42h0c1.18,1.18,2.75,1.83,4.42,1.83s3.24-.65,4.42-1.83l9.09-9.09,9.09,9.09c1.18,1.18,2.75,1.83,4.42,1.83s3.24-.65,4.42-1.83c1.18-1.18,1.83-2.75,1.83-4.42s-.65-3.24-1.83-4.42l-9.09-9.09Z"/>
    <path class="cls-1" d="M122.72,86.49c-9.98,0-18.1,8.12-18.1,18.1,0,1.95,1.58,3.53,3.53,3.53s3.53-1.58,3.53-3.53c0-6.09,4.95-11.04,11.04-11.04s11.04,4.95,11.04,11.04c0,1.95,1.58,3.53,3.53,3.53s3.53-1.58,3.53-3.53c0-9.98-8.12-18.1-18.1-18.1Z"/>
  </g>
  <path class="cls-8" d="M125.39,14.69c11.82,0,21.4.5,21.4-2.79,0-.86-.66-1.89-1.84-2.94-6.18-1.98-12.75-3.06-19.56-3.06h0c-6.81,0-13.38,1.08-19.56,3.06-1.17,1.05-1.84,2.08-1.84,2.94,0,3.28,9.58,2.79,21.4,2.79Z"/>
</svg>